<?xml version="1.0" standalone="no"?><!DOCTYPE svg PUBLIC "-//W3C//DTD SVG 1.1//EN" "http://www.w3.org/Graphics/SVG/1.1/DTD/svg11.dtd"><svg class="icon" width="200px" height="200.00px" viewBox="0 0 1024 1024" version="1.1" xmlns="http://www.w3.org/2000/svg"><path d="M755.965154 244.062433c0 31.146303-29.610321 56.404675-66.217894 56.404675a71.252502 71.252502 0 0 1-48.980762-18.773114l-0.255997 0.170664-83.113697-78.676415v707.575745c0 31.146303-29.695654 56.319343-66.217894 56.319343-36.522241 0-66.217894-25.17304-66.217895-56.319343V203.188243l-83.199029 78.676415-0.170665-0.170664a71.16717 71.16717 0 0 1-48.980761 18.773114c-36.607573 0-66.217894-25.258372-66.217895-56.319343 0-14.506497 6.57059-27.562345 17.1518-37.546229l-0.170664-0.170664L441.942151 18.785061l0.170664 0.085332A71.252502 71.252502 0 0 1 491.17891 0.011947c19.541105 0 36.86357 7.338581 48.980761 18.773114L540.330336 18.785061l198.653683 187.731143-0.170665 0.170665c10.495878 9.983884 17.066468 23.039731 17.066467 37.546228z" fill="#D0021B" /></svg>