<?xml version="1.0" standalone="no"?><!DOCTYPE svg PUBLIC "-//W3C//DTD SVG 1.1//EN" "http://www.w3.org/Graphics/SVG/1.1/DTD/svg11.dtd"><svg class="icon" width="200px" height="200.00px" viewBox="0 0 1024 1024" version="1.1" xmlns="http://www.w3.org/2000/svg"><path d="M781.056 723.029333c0-31.146667-29.610667-56.32-66.218667-56.32a71.253333 71.253333 0 0 0-48.981333 18.773334L665.6 685.226667l-83.2 78.677333V56.32c0-31.061333-29.610667-56.32-66.218667-56.32-36.522667 0-66.218667 25.258667-66.218666 56.32v707.669333L366.933333 685.312l-0.170666 0.170667a71.168 71.168 0 0 0-48.981334-18.773334c-36.608 0-66.218667 25.173333-66.218666 56.32 0 14.506667 6.570667 27.562667 17.152 37.546667l-0.170667 0.085333 198.570667 187.818667 0.170666-0.085333c12.117333 11.434667 29.525333 18.773333 49.066667 18.773333a71.253333 71.253333 0 0 0 48.981333-18.773333l0.256 0.085333 198.570667-187.733333-0.170667-0.170667a51.626667 51.626667 0 0 0 17.152-37.546667z" fill="#57BC46" /></svg>